<svg width="769" height="1264" viewBox="0 0 769 1264" fill="none" xmlns="http://www.w3.org/2000/svg">
  <path d="M-214 -104.275L-31.5445 1264L768.61 1264L235.22 -104.275L-214 -104.275Z" fill="url(#paint0_linear_9_17)"/>
  <defs>
    <linearGradient id="paint0_linear_9_17" x1="188.822" y1="1264" x2="188.822" y2="158.131" gradientUnits="userSpaceOnUse">
      <stop stop-color="#2B3087"/>
      <stop offset="0.82" stop-color="#00B4EC"/>
    </linearGradient>
  </defs>
</svg>
<svg width="769" height="940" viewBox="0 0 769 940" fill="none" xmlns="http://www.w3.org/2000/svg">
  <path d="M-32.9048 940L768.609 940L399.224 0.987305L-32.9048 940Z" fill="url(#paint0_linear_9_22)"/>
  <defs>
    <linearGradient id="paint0_linear_9_22" x1="367.852" y1="0.987305" x2="367.852" y2="940" gradientUnits="userSpaceOnUse">
      <stop stop-color="#3FAE6C"/>
      <stop offset="1" stop-color="#006633"/>
    </linearGradient>
  </defs>
</svg>
<svg width="1401" height="1264" viewBox="0 0 1401 1264" fill="none" xmlns="http://www.w3.org/2000/svg">
  <path d="M217.088 -121.043L399.166 324.659L-32.9048 1264L937.711 1264L859.577 1068.03L1400.77 -97.3756L217.088 -121.043Z" fill="#FFD100"/>
</svg>
<svg width="1010" height="1070" viewBox="0 0 1010 1070" fill="none" xmlns="http://www.w3.org/2000/svg">
  <path d="M1009.77 -96.3245L1009.42 -97.5684L0.327637 -97.5684L468.996 1069.49L1009.77 -96.3245Z" fill="url(#paint0_linear_9_21)"/>
  <defs>
    <linearGradient id="paint0_linear_9_21" x1="554.345" y1="1066.14" x2="554.345" y2="-97.5684" gradientUnits="userSpaceOnUse">
      <stop stop-color="#009540"/>
      <stop offset="1" stop-color="#26A960"/>
    </linearGradient>
  </defs>
</svg>
<svg width="1369" height="1261" viewBox="0 0 1369 1261" fill="none" xmlns="http://www.w3.org/2000/svg">
  <path d="M444.875 1260.65L0.259277 125.189L429.826 18.4215L908.658 -95.8911L1072.36 -95.8911L978.68 107.451L1368.53 1260.42L444.875 1260.65Z" fill="url(#paint0_linear_9_18)"/>
  <defs>
    <linearGradient id="paint0_linear_9_18" x1="684.055" y1="1260.65" x2="684.055" y2="-99.6803" gradientUnits="userSpaceOnUse">
      <stop stop-color="#2B3087"/>
      <stop offset="1" stop-color="#00B4EC"/>
    </linearGradient>
  </defs>
</svg>
<svg width="836" height="1047" viewBox="0 0 836 1047" fill="none" xmlns="http://www.w3.org/2000/svg">
  <path d="M0 1046.65L835.051 1046.65L483.092 0.318359L0 1046.65Z" fill="url(#paint0_linear_9_23)"/>
  <defs>
    <linearGradient id="paint0_linear_9_23" x1="0" y1="523.586" x2="835.051" y2="523.586" gradientUnits="userSpaceOnUse">
      <stop stop-color="#164194"/>
      <stop offset="1" stop-color="#005CA9"/>
    </linearGradient>
  </defs>
</svg>
<svg width="1071" height="1374" viewBox="0 0 1071 1374" fill="none" xmlns="http://www.w3.org/2000/svg">
  <path d="M720.94 -142.91L0 1415L1086.1 1415L1928 -478L720.94 -142.91Z" fill="#E20613"/>
</svg>